
<svg width="1011px" height="352px" viewBox="0 0 1011 352" version="1.1" xmlns="http://www.w3.org/2000/svg" xmlns:xlink="http://www.w3.org/1999/xlink">
    <defs>
        <linearGradient x1="12.7132022%" y1="72.5860102%" x2="86.5416861%" y2="72.5860102%" id="linearGradient-1">
            <stop stop-color="#FFFFFF" stop-opacity="0.264775815" offset="0%"></stop>
            <stop stop-color="#FFFFFF" offset="100%"></stop>
        </linearGradient>
    </defs>
    <g id="ui" stroke="none" stroke-width="1" fill="none" fill-rule="evenodd" opacity="0.0531250015">
        <g id="1600_0_1_2" transform="translate(-120.000000, -165.000000)" fill="url(#linearGradient-1)" fill-rule="nonzero">
            <g id="Group-10" transform="translate(120.000000, 165.000000)">
                <path d="M-139,351.429319 C-46.352657,351.429319 -46.352657,351.429319 46.294686,351.429319 C138.942029,351.429319 138.942029,351.429319 231.589372,351.429319 C324.236715,351.429319 324.236715,351.429319 416.884058,351.429319 C509.531401,351.429319 509.531401,351.429319 602.178744,351.429319 C694.826087,351.429319 694.826087,351.429319 787.47343,351.429319 C880.120773,351.429319 880.120773,351.429319 972.768116,351.429319 C1065.41546,351.429319 1065.41546,351.429319 1158.0628,351.429319 L1158.0628,309.257801 C1065.41546,309.257801 1065.41546,178.057522 972.768116,178.057522 C880.120773,178.057522 880.120773,0 787.47343,0 C694.826087,0 694.826087,131.200279 602.178744,131.200279 C509.531401,131.200279 509.531401,135.886003 416.884058,135.886003 C324.236715,135.886003 324.236715,98.4002094 231.589372,98.4002094 C138.942029,98.4002094 138.942029,281.143455 46.294686,281.143455 C-46.352657,281.143455 -46.352657,342.057871 -139,342.057871 L-139,351.429319 Z" id="area_1"></path>
            </g>
        </g>
    </g>
</svg>